<?xml version="1.0" encoding="UTF-8"?>
<!DOCTYPE svg PUBLIC "-//W3C//DTD SVG 1.1//EN" "http://www.w3.org/Graphics/SVG/1.1/DTD/svg11.dtd">
<!-- Creator: CorelDRAW X8 -->
<svg xmlns="http://www.w3.org/2000/svg" xml:space="preserve" width="40mm" height="50mm" version="1.1" shape-rendering="geometricPrecision" text-rendering="geometricPrecision" image-rendering="optimizeQuality" fill-rule="evenodd" clip-rule="evenodd"
viewBox="0 0 4000 5000"
 xmlns:xlink="http://www.w3.org/1999/xlink">
 <g id="Camada_x0020_1">
  <metadata id="CorelCorpID_0Corel-Layer"/>
  <path fill="#2B5900" fill-rule="nonzero" d="M1330 4788c0,2 0,5 -2,7 -2,2 -5,4 -9,6 -4,1 -10,2 -17,3 -6,1 -15,1 -25,1 -11,0 -20,0 -27,-1 -7,-1 -13,-2 -17,-3 -4,-2 -6,-4 -8,-6 -2,-2 -3,-5 -3,-7l0 -217 -201 0 0 217c0,2 0,5 -2,7 -2,2 -5,4 -9,6 -4,1 -9,2 -16,3 -7,1 -16,1 -27,1 -10,0 -19,0 -26,-1 -7,-1 -12,-2 -16,-3 -5,-2 -7,-4 -9,-6 -2,-2 -3,-5 -3,-7l0 -506c0,-2 1,-5 3,-7 2,-2 4,-4 9,-6 4,-1 9,-2 16,-3 7,-1 16,-1 26,-1 11,0 20,0 27,1 7,1 12,2 16,3 4,2 7,4 9,6 2,2 2,5 2,7l0 197 201 0 0 -197c0,-2 1,-5 3,-7 2,-2 4,-4 8,-6 4,-1 10,-2 17,-3 7,-1 16,-1 27,-1 10,0 19,0 25,1 7,1 13,2 17,3 4,2 7,4 9,6 2,2 2,5 2,7l0 506z"/>
  <path id="1" fill="#2B5900" fill-rule="nonzero" d="M1928 4529c0,44 -5,84 -16,119 -11,35 -28,65 -50,89 -21,24 -48,43 -80,56 -33,13 -70,19 -112,19 -42,0 -78,-6 -109,-16 -31,-11 -57,-28 -77,-50 -21,-23 -36,-51 -47,-85 -10,-35 -15,-76 -15,-123 0,-43 5,-82 16,-116 11,-35 28,-64 49,-89 22,-24 49,-42 81,-55 32,-13 70,-20 112,-20 41,0 76,6 107,16 31,11 57,28 78,50 21,22 37,50 47,84 11,34 16,75 16,121zm-114 5c0,-28 -3,-53 -7,-76 -4,-23 -12,-43 -22,-59 -11,-17 -25,-29 -43,-38 -17,-9 -39,-14 -66,-14 -26,0 -49,5 -66,15 -18,10 -33,24 -44,41 -11,16 -19,36 -23,58 -5,23 -7,47 -7,72 0,29 2,55 7,79 4,23 12,43 22,59 10,17 24,29 42,38 18,9 40,13 66,13 27,0 49,-5 67,-15 18,-10 33,-23 44,-40 11,-17 18,-37 23,-60 4,-23 7,-47 7,-73z"/>
  <path id="2" fill="#2B5900" fill-rule="nonzero" d="M2643 4788c0,2 -1,5 -2,7 -2,2 -5,4 -9,6 -4,1 -9,2 -16,3 -6,1 -15,1 -25,1 -10,0 -18,0 -25,-1 -6,-1 -12,-2 -16,-3 -3,-2 -6,-4 -8,-6 -2,-2 -2,-5 -2,-7l0 -436 -1 0 -155 435c-1,4 -3,7 -5,9 -3,3 -6,4 -10,6 -5,1 -10,2 -17,3 -6,0 -14,0 -23,0 -10,0 -18,0 -24,-1 -7,-1 -13,-2 -17,-3 -4,-2 -7,-4 -10,-6 -2,-2 -4,-5 -5,-8l-149 -435 -1 0 0 436c0,2 -1,5 -2,7 -2,2 -5,4 -9,6 -4,1 -9,2 -16,3 -6,1 -15,1 -25,1 -10,0 -18,0 -25,-1 -6,-1 -12,-2 -16,-3 -4,-2 -6,-4 -8,-6 -2,-2 -2,-5 -2,-7l0 -477c0,-14 3,-25 11,-32 7,-8 17,-11 30,-11l71 0c13,0 24,1 33,3 9,2 17,5 23,10 7,5 13,11 17,19 4,8 8,18 11,29l116 319 1 0 120 -318c3,-12 7,-21 12,-29 4,-8 9,-15 14,-20 6,-5 13,-8 21,-10 7,-2 16,-3 26,-3l74 0c7,0 14,1 19,2 5,2 10,5 13,9 4,4 6,8 8,13 2,6 3,12 3,19l0 477z"/>
  <path id="3" fill="#2B5900" fill-rule="nonzero" d="M3076 4760c0,8 0,15 -1,20 0,5 -1,10 -3,13 -1,3 -3,6 -5,7 -2,2 -4,3 -7,3l-268 0c-9,0 -17,-3 -23,-8 -6,-6 -9,-15 -9,-27l0 -466c0,-12 3,-21 9,-26 6,-6 14,-8 23,-8l267 0c2,0 5,0 7,2 2,1 3,3 5,7 1,3 2,8 3,13 0,6 1,12 1,21 0,7 -1,14 -1,19 -1,6 -2,10 -3,13 -2,4 -3,6 -5,8 -2,1 -5,2 -7,2l-191 0 0 130 161 0c3,0 5,1 7,3 2,1 4,3 5,7 1,3 2,7 3,13 1,5 1,11 1,19 0,8 0,15 -1,20 -1,5 -2,9 -3,13 -1,3 -3,5 -5,6 -2,2 -4,2 -7,2l-161 0 0 151 192 0c3,0 5,1 7,2 2,2 4,4 5,8 2,3 3,7 3,13 1,5 1,12 1,20z"/>
  <path fill="#2B5900" d="M2004 50c1104,0 1999,895 1999,1999 0,1104 -895,1998 -1999,1998 -1103,0 -1998,-894 -1998,-1998 0,-1104 895,-1999 1998,-1999zm-1569 2081c-62,205 131,321 284,200 12,-10 26,-26 38,-36 41,-39 259,-261 274,-270 2,-14 -4,-6 7,-10 22,-35 187,-182 234,-232l353 -352c108,-116 239,-233 354,-350 40,19 280,278 356,348 43,39 79,77 119,116 17,18 457,453 470,476 33,33 62,64 96,96 28,27 73,69 96,97 47,40 89,100 142,135 28,18 62,32 102,33 54,0 69,-16 107,-32 39,-40 76,-75 69,-151 -6,-62 -45,-116 -77,-146 -88,-81 -206,-213 -290,-291 -5,-6 -7,-7 -15,-14 -10,-11 -18,-18 -29,-29 -38,-39 -74,-73 -112,-111l-166 -167c-10,-9 -17,-18 -27,-27 -10,-10 -20,-18 -29,-29 -13,-11 -24,-24 -37,-37 -12,-14 -22,-23 -34,-36l-503 -499c-94,-94 -201,-244 -361,-119 -29,23 -45,47 -71,73 -24,26 -47,47 -73,71 -94,90 -194,194 -287,286l-858 858c-53,52 -95,84 -132,149zm600 669l1 123c-1,67 -2,135 -1,202 0,76 -2,121 52,149 78,42 284,30 382,28 -9,-120 -3,-254 -2,-375 0,-124 -2,-231 42,-338 80,-197 233,-293 457,-300 198,-7 394,93 478,280 71,159 37,514 44,711l-1 25 359 2c70,-14 103,-54 105,-131l12 -483c0,-109 0,-66 6,-173 3,-50 8,-107 9,-158 1,-16 3,-112 -3,-123l-991 -933 -944 816 -5 678z"/>
 </g>
</svg>
