<?xml version="1.0" encoding="UTF-8"?>
<!DOCTYPE svg PUBLIC "-//W3C//DTD SVG 1.1//EN" "http://www.w3.org/Graphics/SVG/1.1/DTD/svg11.dtd">
<!-- Creator: CorelDRAW X8 -->
<svg xmlns="http://www.w3.org/2000/svg" xml:space="preserve" width="40mm" height="50mm" version="1.1" shape-rendering="geometricPrecision" text-rendering="geometricPrecision" image-rendering="optimizeQuality" fill-rule="evenodd" clip-rule="evenodd"
viewBox="0 0 4000 5000"
 xmlns:xlink="http://www.w3.org/1999/xlink">
 <g id="Camada_x0020_1">
  <metadata id="CorelCorpID_0Corel-Layer"/>
  <path fill="#2B5900" d="M2817 857c180,39 267,-31 369,138 70,116 36,312 36,456 0,333 1,665 2,997 0,105 16,419 -12,493 -23,60 -76,99 -116,131 -61,49 -115,45 -210,44 -332,-1 -665,0 -997,0 -205,0 -826,31 -971,-33 -39,-16 -114,-93 -128,-130 -16,-45 -10,-1628 -12,-1726 -7,-447 277,-342 381,-363 69,-14 21,-130 41,-202l272 -2c22,91 -41,192 59,205l201 -2c200,-1 646,15 794,-7 10,-60 -10,-142 12,-190 44,-21 226,-25 266,4 22,27 13,42 11,86 -2,37 -1,64 2,101zm-2778 1266c56,1045 983,1928 2108,1854 707,-47 1240,-428 1563,-928 214,-332 326,-772 300,-1183 -68,-1058 -983,-1939 -2122,-1860 -641,45 -1229,403 -1557,940 -66,107 -115,206 -164,329 -105,261 -144,546 -128,848z"/>
  <path fill="#2B5900" d="M2127 1999l579 3 0 43 0 504 -1 49 -390 -1 -188 -6 0 -592zm8 846c191,0 381,0 572,1 56,0 244,26 260,-22l0 -1309c-46,-13 -1806,-18 -1925,-3l2 1333 1091 0z"/>
  <path fill="#2B5900" d="M896 4304c60,95 96,328 154,432l90 -4c42,-95 75,-214 113,-317 13,-34 23,-78 47,-106 26,320 -64,466 95,421 14,-56 10,-470 -3,-522 -161,-27 -155,-2 -199,124 -30,83 -63,165 -89,243 -52,-52 -101,-337 -158,-365 -33,-15 -114,-8 -143,2 -17,46 -17,469 -4,515 33,16 55,16 92,0l5 -423z"/>
  <path fill="#2B5900" d="M1620 4501c76,-3 165,-7 163,80 -2,87 -83,77 -166,73l3 -153zm-1 -218c71,-4 141,-11 137,71 -3,79 -75,72 -139,67l2 -138zm180 169c16,-21 45,-36 56,-79 49,-195 -204,-177 -336,-167l-3 468c0,76 31,61 153,61 244,0 298,-217 130,-283z"/>
  <path fill="#2B5900" d="M2084 4285c70,-6 149,-10 145,79 -4,76 -70,78 -147,71l2 -150zm163 204c38,-33 133,-97 75,-209 -40,-77 -138,-77 -240,-78 -73,0 -102,-18 -105,58l7 470c41,12 56,12 91,-1 18,-53 7,-146 7,-210 78,-7 95,15 121,76 21,47 40,97 56,141l101 -3c1,-74 -72,-196 -113,-244z"/>
  <path fill="#2B5900" d="M2550 4286l193 -8c25,-96 -26,-76 -103,-76 -248,3 -197,-36 -197,266 0,65 -23,211 14,255 19,15 253,25 281,7 14,-10 19,-42 9,-60 -19,-36 -97,-13 -200,-19l2 -150c40,-3 74,0 112,-1 44,0 61,7 61,-42 -1,-66 -50,-32 -176,-42l4 -130z"/>
  <path fill="#2B5900" d="M497 4288c62,-8 137,10 194,-11 20,-98 -19,-75 -106,-75 -61,1 -135,-3 -189,5 -10,62 -15,473 4,519 37,16 248,15 296,4l-4 -75 -197 -6 1 -148 165 -7c10,-38 11,-38 0,-74l-167 -6 3 -126z"/>
  <path fill="#2B5900" d="M3363 4286l193 -6c7,-42 10,-41 -6,-74 -41,-8 -245,-11 -278,4 -30,22 -22,413 -18,465 1,16 0,14 4,29 8,33 2,11 11,24 45,18 226,11 291,5l-4 -79 -198 -2 3 -153 169 -2 -6 -78 -167 -1 6 -132z"/>
  <path fill="#2B5900" d="M3621 4620c-5,62 -5,87 49,108 42,16 88,20 133,14 152,-20 248,-224 22,-324 -158,-69 -86,-147 -9,-142 51,3 93,47 107,20 56,-114 -197,-142 -272,-35 -24,35 -30,84 -17,131 43,149 248,82 205,244 -118,62 -129,-7 -218,-16z"/>
  <path fill="#2B5900" d="M2942 4290c0,94 0,187 0,281 -1,121 -39,188 97,161 17,-65 7,-350 7,-438 61,-14 175,23 144,-68 -13,-39 -106,-23 -189,-23 -80,0 -192,-16 -205,20 -34,92 82,63 146,67z"/>
  <path fill="#2B5900" d="M146 4649c-1,-119 -2,-239 0,-357 1,-61 11,-113 -76,-91 -44,11 -28,80 -28,133 2,453 -37,402 119,401 50,0 121,8 159,-8 37,-114 -78,-78 -174,-78z"/>
 </g>
</svg>
