<?xml version="1.0" encoding="UTF-8"?>
<!DOCTYPE svg PUBLIC "-//W3C//DTD SVG 1.1//EN" "http://www.w3.org/Graphics/SVG/1.1/DTD/svg11.dtd">
<!-- Creator: CorelDRAW X8 -->
<svg xmlns="http://www.w3.org/2000/svg" xml:space="preserve" width="40mm" height="50mm" version="1.1" shape-rendering="geometricPrecision" text-rendering="geometricPrecision" image-rendering="optimizeQuality" fill-rule="evenodd" clip-rule="evenodd"
viewBox="0 0 4000 5000"
 xmlns:xlink="http://www.w3.org/1999/xlink">
 <g id="Camada_x0020_1">
  <metadata id="CorelCorpID_0Corel-Layer"/>
  <path fill="#2B5900" d="M2126 3796c-85,-27 -128,-115 -173,-205 -116,-234 -193,-444 -339,-712 -115,-212 -344,-734 -442,-973 -155,-381 -225,-764 2,-1127 157,-252 444,-511 882,-519 455,-9 768,230 935,479 436,646 -128,1500 -406,2113 -96,212 -423,799 -459,944zm-342 -3779c-1023,109 -1880,1051 -1747,2211 117,1021 1044,1870 2212,1741 1012,-111 1877,-1051 1740,-2212 -120,-1021 -1037,-1865 -2205,-1740z"/>
  <path fill="#2B5900" d="M2018 854c-626,117 -469,1050 158,949 626,-100 445,-1061 -158,-949z"/>
  <path fill="#2B5900" d="M2776 4402c227,-85 257,314 109,380 -112,51 -194,-25 -207,-128 -16,-121 5,-217 98,-252zm-40 -89c-148,44 -208,197 -170,382 60,304 596,271 518,-194 -28,-164 -170,-239 -348,-188z"/>
  <path fill="#2B5900" d="M2019 4365l4 509 102 4 7 -245 209 -1 8 239 104 8c15,-111 6,-386 5,-514 0,-54 12,-52 -40,-60 -97,-16 -71,61 -71,228l-217 1c0,-172 26,-246 -72,-229 -51,8 -39,7 -39,60z"/>
  <path fill="#2B5900" d="M3302 4593l-2 -199c86,0 158,1 156,97 -1,95 -60,102 -154,102zm-108 284l102 2 7 -199c150,-1 260,-31 270,-177 15,-197 -163,-194 -302,-194 -104,0 -81,1 -81,244 0,92 -8,244 4,324z"/>
  <path fill="#2B5900" d="M356 4589c-1,-33 -19,-182 23,-195 143,-45 223,226 -23,195zm-106 -276l-7 559 106 6 7 -195c144,-14 250,-27 269,-169 30,-232 -214,-210 -375,-201z"/>
  <path fill="#2B5900" d="M725 4312l-5 504c0,82 62,71 272,63l55 -5 3 -73c-55,-23 -150,-6 -216,-14l-2 -157 179 -7 7 -79 -184 -6 -3 -137c63,-12 137,3 185,-6 46,-9 68,-86 -24,-86l-267 3z"/>
  <path fill="#2B5900" d="M1565 4753c-21,213 311,154 355,15 81,-261 -306,-198 -220,-358 66,-58 121,-4 187,12 66,-223 -444,-135 -292,129 43,73 198,90 214,155 15,62 -33,91 -90,92 -77,2 -91,-34 -154,-45z"/>
  <path fill="#2B5900" d="M3865 4782c-154,41 -128,-14 -228,-26l-2 85c140,98 405,39 360,-173 -18,-84 -106,-112 -178,-147 -114,-55 -60,-168 73,-124 42,14 77,50 77,-18 -2,-120 -265,-102 -314,18 -43,110 28,183 93,218 90,48 163,52 119,167z"/>
  <path fill="#2B5900" d="M1108 4310l-3 88 153 3 3 466c43,22 53,16 106,9l7 -468 147 -10c15,-39 17,-43 -1,-85l-412 -3z"/>
 </g>
</svg>
