<?xml version="1.0" encoding="UTF-8"?>
<!DOCTYPE svg PUBLIC "-//W3C//DTD SVG 1.1//EN" "http://www.w3.org/Graphics/SVG/1.1/DTD/svg11.dtd">
<!-- Creator: CorelDRAW X8 -->
<svg xmlns="http://www.w3.org/2000/svg" xml:space="preserve" width="40mm" height="50mm" version="1.1" shape-rendering="geometricPrecision" text-rendering="geometricPrecision" image-rendering="optimizeQuality" fill-rule="evenodd" clip-rule="evenodd"
viewBox="0 0 4000 5000"
 xmlns:xlink="http://www.w3.org/1999/xlink">
 <g id="Camada_x0020_1">
  <metadata id="CorelCorpID_0Corel-Layer"/>
  <path fill="#FEFEFE" d="M1587 977c49,13 158,140 191,174 118,121 87,74 283,76 171,2 180,32 282,-69 44,-45 135,-165 191,-181 74,60 99,93 163,167 -20,64 -150,150 -190,214 22,41 96,76 130,119l110 145c115,9 237,-13 348,10l3 239c-93,16 -198,-19 -260,18 -10,60 -7,204 15,245 18,15 182,7 212,11l23 8c22,31 18,203 3,236l-244 7c-4,53 -22,227 -3,260 10,10 -10,4 20,13 39,11 170,-8 230,8 9,69 15,182 -6,245l-357 6c-22,30 -40,61 -63,90 -185,236 -461,348 -773,277 -193,-44 -197,-67 -319,-145 -166,-107 -124,-197 -243,-223 -84,-18 -214,-3 -302,2l-4 -248 256 -6c29,-46 7,-67 5,-125 -3,-50 1,-105 -8,-151 -81,-19 -165,-10 -252,-8l-1 -238c72,-21 175,5 258,-17l12 -251c-107,-42 -177,5 -260,-18 -13,-37 -21,-190 -5,-231 34,-17 157,-9 204,-10 228,-4 92,13 261,-162 36,-37 80,-63 113,-106 -10,-24 -63,-78 -81,-96 -138,-135 -128,-100 -39,-197 23,-26 75,-79 97,-88zm324 -572c-989,69 -1706,884 -1653,1842 51,933 843,1706 1844,1652 932,-49 1705,-846 1650,-1847 -24,-452 -248,-920 -560,-1188 -351,-301 -773,-494 -1281,-459z"/>
  <path fill="#A3C846" d="M2847 2396l244 -7c15,-33 19,-205 -3,-236l-23 -8c-30,-4 -194,4 -212,-11 -22,-41 -25,-185 -15,-245 62,-37 167,-2 260,-18l-3 -239c-111,-23 -233,-1 -348,-10l-110 -145c-34,-43 -108,-78 -130,-119 40,-64 170,-150 190,-214 -64,-74 -89,-107 -163,-167 -56,16 -147,136 -191,181 -102,101 -111,71 -282,69 -196,-2 -165,45 -283,-76 -33,-34 -142,-161 -191,-174 -22,9 -74,62 -97,88 -89,97 -99,62 39,197 18,18 71,72 81,96 -33,43 -77,69 -113,106 -169,175 -33,158 -261,162 -47,1 -170,-7 -204,10 -16,41 -8,194 5,231 83,23 153,-24 260,18l-12 251c-83,22 -186,-4 -258,17l1 238c87,-2 171,-11 252,8 9,46 5,101 8,151 2,58 24,79 -5,125l-256 6 4 248c88,-5 218,-20 302,-2 119,26 77,116 243,223 122,78 126,101 319,145 312,71 588,-41 773,-277 23,-29 41,-60 63,-90l357 -6c21,-63 15,-176 6,-245 -60,-16 -191,3 -230,-8 -30,-9 -10,-3 -20,-13 -19,-33 -1,-207 3,-260z"/>
 </g>
</svg>
