<?xml version="1.0" encoding="UTF-8"?>
<!DOCTYPE svg PUBLIC "-//W3C//DTD SVG 1.1//EN" "http://www.w3.org/Graphics/SVG/1.1/DTD/svg11.dtd">
<!-- Creator: CorelDRAW X8 -->
<svg xmlns="http://www.w3.org/2000/svg" xml:space="preserve" width="40mm" height="50mm" version="1.1" shape-rendering="geometricPrecision" text-rendering="geometricPrecision" image-rendering="optimizeQuality" fill-rule="evenodd" clip-rule="evenodd"
viewBox="0 0 4000 5000"
 xmlns:xlink="http://www.w3.org/1999/xlink">
 <g id="Camada_x0020_1">
  <metadata id="CorelCorpID_0Corel-Layer"/>
  <path fill="#FEFEFE" d="M2119 3475c-260,54 -492,136 -746,188 -575,118 -826,-727 -221,-916 117,-37 247,-67 367,-98 103,-27 267,-77 370,-89l230 915zm-176 -996c209,-36 493,-152 777,-195 590,-91 826,809 239,1001 -177,58 -577,176 -765,192 -32,-95 -249,-938 -251,-998zm-616 -1404c431,-57 777,279 820,654 50,438 -278,771 -655,821 -433,58 -773,-281 -822,-650 -59,-443 275,-774 657,-825zm352 -483c-903,112 -1665,878 -1557,1916 92,895 902,1677 1923,1560 895,-103 1667,-892 1556,-1917 -56,-512 -327,-922 -599,-1146 -157,-130 -312,-239 -548,-324 -239,-87 -500,-124 -775,-89z"/>
  <path fill="#A3C846" d="M957 2336c67,-118 305,-448 395,-568l406 -562 126 83 -810 1131c-38,-15 -89,-58 -117,-84zm370 -1261c-382,51 -716,382 -657,825 49,369 389,708 822,650 377,-50 705,-383 655,-821 -43,-375 -389,-711 -820,-654z"/>
  <path fill="#A3C846" d="M2119 3475l-230 -915c-103,12 -267,62 -370,89 -120,31 -250,61 -367,98 -605,189 -354,1034 221,916 254,-52 486,-134 746,-188z"/>
  <path fill="#FEFEFE" d="M2135 2607l168 681c122,-4 446,-103 569,-140 478,-146 283,-798 -174,-701 -102,22 -510,115 -563,160z"/>
  <path fill="#A3C846" d="M2135 2607c53,-45 461,-138 563,-160 457,-97 652,555 174,701 -123,37 -447,136 -569,140l-168 -681zm-192 -128c2,60 219,903 251,998 188,-16 588,-134 765,-192 587,-192 351,-1092 -239,-1001 -284,43 -568,159 -777,195z"/>
  <path fill="#FEFEFE" d="M957 2336c28,26 79,69 117,84l810 -1131 -126 -83 -406 562c-90,120 -328,450 -395,568z"/>
 </g>
</svg>
