<?xml version="1.0" encoding="UTF-8"?>
<!DOCTYPE svg PUBLIC "-//W3C//DTD SVG 1.1//EN" "http://www.w3.org/Graphics/SVG/1.1/DTD/svg11.dtd">
<!-- Creator: CorelDRAW X8 -->
<svg xmlns="http://www.w3.org/2000/svg" xml:space="preserve" width="40mm" height="50mm" version="1.1" shape-rendering="geometricPrecision" text-rendering="geometricPrecision" image-rendering="optimizeQuality" fill-rule="evenodd" clip-rule="evenodd"
viewBox="0 0 4000 5000"
 xmlns:xlink="http://www.w3.org/1999/xlink">
 <g id="Camada_x0020_1">
  <metadata id="CorelCorpID_0Corel-Layer"/>
  <path fill="#2B5900" d="M1232 4315c67,-5 101,-5 139,25 50,114 -26,151 -146,135l7 -160zm-118 -19l4 496 103 5 7 -232c98,-4 112,36 144,113 43,107 18,130 159,119 -10,-104 -76,-198 -125,-263 53,-47 127,-84 89,-206 -36,-115 -189,-101 -306,-101 -63,0 -75,4 -75,69z"/>
  <path fill="#2B5900" d="M1742 4793l139 7c27,-66 184,-527 177,-571l-90 -4c-34,55 -55,155 -76,224l-64 200c-9,17 -8,14 -17,25 -29,-93 -109,-387 -147,-447l-97 -2c-12,63 144,491 175,568z"/>
  <path fill="#2B5900" d="M688 4235c-22,49 -19,515 1,548 19,20 226,20 274,14l32 -8c2,0 7,-2 10,-3 26,-119 -36,-63 -214,-79l-3 -159 181 -6 6 -79 -183 -7 -4 -138c33,-4 306,16 211,-80 -25,-25 -266,-13 -311,-3z"/>
  <path fill="#2B5900" d="M464 4604c29,204 -222,71 -242,67 -9,115 34,135 153,136 96,1 171,-44 199,-111 106,-255 -298,-211 -217,-367 45,-58 149,1 187,11 56,-176 -259,-155 -306,-18 -64,189 135,213 226,282z"/>
  <path fill="#2B5900" d="M2139 4284l5 509 103 3c8,-45 13,-533 -1,-555 -12,-18 -43,-22 -67,-18 -52,9 -40,5 -40,61z"/>
  <path fill="#2B5900" d="M1613 2527c9,74 31,197 73,242 317,49 1171,-90 1363,90 160,149 92,392 -88,466 -184,76 -379,-39 -387,-312l-741 0c-12,496 -602,383 -560,16 19,-162 122,-190 160,-226l-445 -1644c-109,-9 -291,33 -353,-56 -30,-45 -25,-118 6,-149 32,-32 102,-38 159,-39 347,-11 411,-34 455,329 567,0 1133,0 1699,0 113,0 485,-25 521,41 34,63 -343,1190 -351,1201 -52,74 -244,41 -345,41l-1166 0zm224 -2534c-834,45 -1453,623 -1719,1289 -116,291 -141,535 -123,869 21,384 191,793 420,1076 147,182 319,344 530,471 330,198 829,349 1205,294 627,-91 1082,-312 1450,-805 104,-140 202,-311 266,-484 82,-220 165,-626 127,-874 -83,-535 -204,-838 -544,-1211 -44,-48 -78,-70 -127,-123 -140,-148 -422,-299 -624,-376 -264,-101 -563,-143 -861,-126z"/>
  <path fill="#2B5900" d="M3050 4313c240,-59 242,358 77,396 -244,56 -242,-356 -77,-396zm-48 -84c-149,44 -202,192 -174,371 50,327 599,285 521,-176 -27,-159 -162,-251 -347,-195z"/>
  <path fill="#2B5900" d="M2577 4872c-44,29 -41,5 -85,25 -2,44 -14,48 39,61 20,4 71,1 90,-6 63,-23 47,-87 25,-140 90,-45 128,-9 121,-146 -18,5 -288,160 -293,-144 -6,-330 281,-165 289,-164 9,-79 12,-96 -49,-121 -135,-54 -298,2 -344,162 -28,96 -22,212 23,297 66,124 176,64 184,176z"/>
  <path fill="#2B5900" d="M3424 4683c-22,192 319,149 358,-8 63,-257 -339,-198 -215,-355 79,-44 120,12 180,19 22,-75 13,-93 -48,-111 -59,-17 -116,-17 -171,5 -78,31 -139,142 -70,236 53,73 194,97 210,156 21,85 -75,114 -176,72l-59 -15c-2,0 -6,0 -9,1z"/>
 </g>
</svg>
