<?xml version="1.0" encoding="UTF-8"?>
<!DOCTYPE svg PUBLIC "-//W3C//DTD SVG 1.1//EN" "http://www.w3.org/Graphics/SVG/1.1/DTD/svg11.dtd">
<!-- Creator: CorelDRAW X8 -->
<svg xmlns="http://www.w3.org/2000/svg" xml:space="preserve" width="40mm" height="50mm" version="1.1" shape-rendering="geometricPrecision" text-rendering="geometricPrecision" image-rendering="optimizeQuality" fill-rule="evenodd" clip-rule="evenodd"
viewBox="0 0 4000 5000"
 xmlns:xlink="http://www.w3.org/1999/xlink">
 <g id="Camada_x0020_1">
  <metadata id="CorelCorpID_0Corel-Layer"/>
  <path fill="#FEFEFE" d="M1108 3190c14,46 66,51 45,112 -7,21 -63,74 -84,80 -46,14 -86,-33 -106,-53l-165 -166c-22,-26 -71,-58 -54,-107 8,-23 60,-75 80,-83 58,-22 76,33 108,47 61,-36 255,-267 309,-295l162 154c-16,48 -260,251 -295,311zm2110 -2153c23,30 32,49 54,76 14,17 40,47 48,76 49,180 -258,180 -206,-3l97 -142c1,-1 3,-1 4,-4 0,-2 2,-2 3,-3zm-462 372c-28,-16 -31,-28 -55,-42 -17,18 -14,8 -23,34 15,14 22,21 40,33l39 -25c15,30 53,62 75,75 -14,64 -32,-11 21,102 18,39 39,84 7,118 -58,63 -108,107 -163,161l-648 650c-50,50 -302,291 -320,327 22,34 126,96 67,161 -50,54 -92,96 -159,23 -107,-118 -407,-409 -524,-526 -67,-66 -78,-96 1,-163 85,-74 118,40 174,60 73,-54 687,-689 837,-833l251 -251c26,-26 53,-73 107,-62 41,9 97,49 119,52 37,6 13,-21 53,18 17,17 27,27 46,41 33,-18 195,-189 236,-230 114,-112 142,-179 275,-193 -26,49 -423,412 -456,470zm-949 -1109c-976,112 -1653,963 -1558,1915 90,903 897,1670 1925,1565 897,-92 1660,-901 1556,-1919 -57,-556 -379,-1052 -850,-1328 -313,-184 -694,-277 -1073,-233z"/>
  <path fill="#A3C846" d="M1334 2449c9,-20 69,-80 89,-96 65,-55 354,-357 465,-463 64,-60 117,-121 180,-182 63,-61 125,-122 186,-185l179 -184c97,-93 396,255 376,322l-846 853c-37,36 -264,269 -289,276l-340 -341zm1422 -1040c33,-58 430,-421 456,-470 -133,14 -161,81 -275,193 -41,41 -203,212 -236,230 -19,-14 -29,-24 -46,-41 -40,-39 -16,-12 -53,-18 -22,-3 -78,-43 -119,-52 -54,-11 -81,36 -107,62l-251 251c-150,144 -764,779 -837,833 -56,-20 -89,-134 -174,-60 -79,67 -68,97 -1,163 117,117 417,408 524,526 67,73 109,31 159,-23 59,-65 -45,-127 -67,-161 18,-36 270,-277 320,-327l648 -650c55,-54 105,-98 163,-161 32,-34 11,-79 -7,-118 -53,-113 -35,-38 -21,-102 -22,-13 -60,-45 -75,-75l-39 25c-18,-12 -25,-19 -40,-33 9,-26 6,-16 23,-34 24,14 27,26 55,42z"/>
  <path fill="#FEFEFE" d="M1549 2370c48,-16 79,19 127,77 39,47 113,87 80,123 -34,38 -134,-87 -175,-129 -19,-21 -42,-34 -32,-71zm332 77c-54,4 -137,-109 -176,-146 -15,-15 -49,-49 -12,-66 39,-18 103,67 124,86 71,65 94,83 64,126zm-37 -430c15,7 265,250 265,269 0,2 -36,107 -107,36 -40,-40 -59,-61 -101,-101 -32,-31 -70,-74 -99,-101 -23,-20 -41,-28 -17,-61 15,-21 34,-37 59,-42zm316 224c-23,-10 -258,-239 -273,-279 17,-30 249,-255 290,-292 101,-96 190,-204 292,-296 96,8 263,186 283,272 -40,52 -93,101 -140,150 -44,45 -424,430 -452,445zm-826 208l340 341c25,-7 252,-240 289,-276l846 -853c20,-67 -279,-415 -376,-322l-179 184c-61,63 -123,124 -186,185 -63,61 -116,122 -180,182 -111,106 -400,408 -465,463 -20,16 -80,76 -89,96z"/>
  <path fill="#A3C846" d="M2160 2241c28,-15 408,-400 452,-445 47,-49 100,-98 140,-150 -20,-86 -187,-264 -283,-272 -102,92 -191,200 -292,296 -41,37 -273,262 -290,292 15,40 250,269 273,279z"/>
  <path fill="#A3C846" d="M1108 3190c35,-60 279,-263 295,-311l-162 -154c-54,28 -248,259 -309,295 -32,-14 -50,-69 -108,-47 -20,8 -72,60 -80,83 -17,49 32,81 54,107l165 166c20,20 60,67 106,53 21,-6 77,-59 84,-80 21,-61 -31,-66 -45,-112z"/>
  <path fill="#A3C846" d="M1785 2059c-24,33 -6,41 17,61 29,27 67,70 99,101 42,40 61,61 101,101 71,71 107,-34 107,-36 0,-19 -250,-262 -265,-269 -25,5 -44,21 -59,42z"/>
  <path fill="#A3C846" d="M1693 2235c-37,17 -3,51 12,66 39,37 122,150 176,146 30,-43 7,-61 -64,-126 -21,-19 -85,-104 -124,-86z"/>
  <path fill="#A3C846" d="M1756 2570c33,-36 -41,-76 -80,-123 -48,-58 -79,-93 -127,-77 -10,37 13,50 32,71 41,42 141,167 175,129z"/>
  <path fill="#A3C846" d="M3218 1037c-1,1 -3,1 -3,3 -1,3 -3,3 -4,4l-97 142c-52,183 255,183 206,3 -8,-29 -34,-59 -48,-76 -22,-27 -31,-46 -54,-76z"/>
 </g>
</svg>
