<?xml version="1.0" encoding="UTF-8"?>
<!DOCTYPE svg PUBLIC "-//W3C//DTD SVG 1.1//EN" "http://www.w3.org/Graphics/SVG/1.1/DTD/svg11.dtd">
<!-- Creator: CorelDRAW X8 -->
<svg xmlns="http://www.w3.org/2000/svg" xml:space="preserve" width="40mm" height="50mm" version="1.1" shape-rendering="geometricPrecision" text-rendering="geometricPrecision" image-rendering="optimizeQuality" fill-rule="evenodd" clip-rule="evenodd"
viewBox="0 0 4000 5000"
 xmlns:xlink="http://www.w3.org/1999/xlink">
 <g id="Camada_x0020_1">
  <metadata id="CorelCorpID_0Corel-Layer"/>
  <path fill="#FEFEFE" d="M1912 2050c23,-25 203,-175 221,-183 286,150 490,168 652,418 354,547 -260,1254 -848,866 -98,-65 -256,-154 -414,-102 -123,41 -214,161 -313,233 -199,144 -235,75 -142,-142 124,-288 364,-434 675,-377 165,30 255,96 370,166 286,174 604,-150 454,-453 -113,-228 -363,-227 -577,-366 -36,-23 -64,-35 -78,-60zm-192 -666c116,-42 129,67 169,142 125,235 335,194 141,367 -26,23 -155,133 -186,138 -97,14 -286,-243 -330,-323 -115,-205 -95,-217 206,-324zm-245 47c-42,-123 -91,-583 47,-632 97,49 212,374 229,521 -7,5 -262,109 -276,111zm310 -991c-971,116 -1656,976 -1541,1945 106,890 912,1648 1943,1530 890,-102 1648,-911 1533,-1937 -99,-886 -913,-1660 -1935,-1538z"/>
  <path fill="#A3C846" d="M1912 2050c14,25 42,37 78,60 214,139 464,138 577,366 150,303 -168,627 -454,453 -115,-70 -205,-136 -370,-166 -311,-57 -551,89 -675,377 -93,217 -57,286 142,142 99,-72 190,-192 313,-233 158,-52 316,37 414,102 588,388 1202,-319 848,-866 -162,-250 -366,-268 -652,-418 -18,8 -198,158 -221,183z"/>
  <path fill="#A3C846" d="M1720 1384c-301,107 -321,119 -206,324 44,80 233,337 330,323 31,-5 160,-115 186,-138 194,-173 -16,-132 -141,-367 -40,-75 -53,-184 -169,-142z"/>
  <path fill="#A3C846" d="M1475 1431c14,-2 269,-106 276,-111 -17,-147 -132,-472 -229,-521 -138,49 -89,509 -47,632z"/>
 </g>
</svg>
